<?xml version="1.0" encoding="utf-8"?>
<!-- Generator: Adobe Illustrator 22.0.1, SVG Export Plug-In . SVG Version: 6.00 Build 0)  -->
<svg version="1.1" id="Слой_1" xmlns="http://www.w3.org/2000/svg" xmlns:xlink="http://www.w3.org/1999/xlink" x="0px" y="0px"
	 viewBox="0 0 92.4 58.551" style="enable-background:new 0 0 92.4 58.551;" xml:space="preserve">
<g>
	<g>
		<g>
			<linearGradient id="SVGID_1_" gradientUnits="userSpaceOnUse" x1="0" y1="26.1565" x2="87.001" y2="26.1565">
				<stop  offset="0" style="stop-color:#87B0F0"/>
				<stop  offset="1" style="stop-color:#6083D9"/>
			</linearGradient>
			<path style="fill:url(#SVGID_1_);" d="M0,7.313c8.803-3.737,18.144-6.496,27.774-7.155c9.579-0.697,19.506,0.875,28.082,5.456
				c4.276,2.277,8.164,5.25,11.556,8.685c3.393,3.437,6.342,7.286,8.872,11.384c4.923,8.286,8.359,17.351,10.717,26.63
				c-0.758-2.273-1.444-4.567-2.232-6.825l-1.262-3.358l-0.63-1.678l-0.721-1.641l-1.424-3.287
				c-0.503-1.082-1.066-2.136-1.596-3.204c-1.013-2.163-2.325-4.163-3.505-6.231c-2.604-3.988-5.488-7.795-8.86-11.144
				c-3.355-3.357-7.187-6.242-11.383-8.448c-4.172-2.25-8.705-3.815-13.368-4.699c-4.665-0.899-9.445-1.105-14.198-0.875
				c-4.758,0.23-9.487,1.008-14.128,2.131C9.037,4.13,4.488,5.644,0,7.313z"/>
		</g>
	</g>
</g>
<g>
	<linearGradient id="SVGID_2_" gradientUnits="userSpaceOnUse" x1="79.9" y1="53.6815" x2="92.401" y2="53.6815">
		<stop  offset="0" style="stop-color:#87B0F0"/>
		<stop  offset="1" style="stop-color:#6083D9"/>
	</linearGradient>
	<path style="fill:url(#SVGID_2_);" d="M79.9,52.313c2.885,1.515,5.605,3.272,8.282,5.09l-0.727,0.188
		c0.752-1.499,1.523-2.988,2.343-4.454c0.405-0.735,0.828-1.461,1.255-2.185c0.451-0.712,0.87-1.44,1.348-2.139
		c-0.272,0.802-0.603,1.573-0.902,2.361c-0.323,0.776-0.651,1.55-0.995,2.315c-0.68,1.535-1.409,3.045-2.157,4.546L88.09,58.55
		l-0.471-0.328C84.962,56.375,82.348,54.464,79.9,52.313z"/>
</g>
</svg>
