<?xml version="1.0" encoding="utf-8"?>
<!-- Generator: Adobe Illustrator 22.0.1, SVG Export Plug-In . SVG Version: 6.00 Build 0)  -->
<svg version="1.1" id="Слой_1" xmlns="http://www.w3.org/2000/svg" xmlns:xlink="http://www.w3.org/1999/xlink" x="0px" y="0px"
	 viewBox="0 0 36 36" style="enable-background:new 0 0 36 36;" xml:space="preserve">
<g>
	<circle style="fill:#1DB51A;" cx="18" cy="18" r="16"/>
	<path style="fill:#FFFFFF;" d="M18,4c7.732,0,14,6.268,14,14s-6.268,14-14,14S4,25.732,4,18S10.268,4,18,4 M18,0
		C8.075,0,0,8.075,0,18s8.075,18,18,18s18-8.075,18-18S27.925,0,18,0L18,0z"/>
</g>
<title>checkmark</title>
<g>
	<path style="fill:#FFFFFF;" d="M16.993,22.028c-0.24,0-0.471-0.09-0.648-0.253l-3.548-3.26c-0.39-0.358-0.415-0.965-0.057-1.355
		c0.359-0.389,0.965-0.415,1.355-0.057l2.837,2.607l4.913-5.422c0.356-0.393,0.963-0.422,1.355-0.067
		c0.392,0.356,0.422,0.962,0.066,1.355l-5.562,6.139c-0.172,0.189-0.411,0.302-0.667,0.314
		C17.022,22.028,17.007,22.028,16.993,22.028z"/>
</g>
</svg>
