<?xml version="1.0" encoding="utf-8"?>
<!-- Generator: Adobe Illustrator 22.0.1, SVG Export Plug-In . SVG Version: 6.00 Build 0)  -->
<svg version="1.1" id="Слой_1" xmlns="http://www.w3.org/2000/svg" xmlns:xlink="http://www.w3.org/1999/xlink" x="0px" y="0px"
	 viewBox="0 0 36 36" style="enable-background:new 0 0 36 36;" xml:space="preserve">
<g>
	<path style="fill:#F75C2E;" d="M18,34C9.178,34,2,26.822,2,18S9.178,2,18,2c8.822,0,16,7.178,16,16S26.822,34,18,34z"/>
	<path style="fill:#FFFFFF;" d="M18,4c7.732,0,14,6.268,14,14s-6.268,14-14,14S4,25.732,4,18S10.268,4,18,4 M18,0
		C8.075,0,0,8.075,0,18s8.075,18,18,18s18-8.075,18-18S27.925,0,18,0L18,0z"/>
</g>
<polygon style="fill:#FFFFFF;" points="22.243,20.828 19.414,18 22.243,15.172 20.828,13.757 18,16.586 15.172,13.757 
	13.757,15.172 16.586,18 13.757,20.828 15.172,22.243 18,19.414 20.828,22.243 "/>
</svg>
