<?xml version="1.0" encoding="utf-8"?>
<!-- Generator: Adobe Illustrator 22.0.1, SVG Export Plug-In . SVG Version: 6.00 Build 0)  -->
<svg version="1.1" id="Слой_1" xmlns="http://www.w3.org/2000/svg" xmlns:xlink="http://www.w3.org/1999/xlink" x="0px" y="0px"
	 viewBox="0 0 163.104 129.689" style="enable-background:new 0 0 163.104 129.689;" xml:space="preserve">
<path style="fill:#FFFFFF;" d="M163.104,101.096V0H0v101.096c0,4.084,2.317,7.671,5.673,8.783l68.11,18.55
	c5.08,1.682,10.458,1.682,15.537,0l68.11-18.55C160.787,108.767,163.104,105.18,163.104,101.096z"/>
<linearGradient id="SVGID_1_" gradientUnits="userSpaceOnUse" x1="7.079" y1="-42.2386" x2="156.025" y2="-42.2386" gradientTransform="matrix(1 0 0 1 0 102)">
	<stop  offset="0" style="stop-color:#86AFF0"/>
	<stop  offset="1" style="stop-color:#BDD1F0"/>
</linearGradient>
<path style="opacity:0.3;fill:none;stroke:url(#SVGID_1_);stroke-miterlimit:10;enable-background:new    ;" d="M7.579,0v93.087
	c0,3.705,2.102,6.958,5.146,7.966l61.78,16.826c4.608,1.525,9.486,1.525,14.094,0l61.78-16.826c3.044-1.008,5.146-4.262,5.146-7.966
	V0"/>
<g>
	
		<linearGradient id="SVGID_2_" gradientUnits="userSpaceOnUse" x1="52.936" y1="-44.562" x2="75.892" y2="-44.562" gradientTransform="matrix(1 0 0 1 0 102)">
		<stop  offset="0" style="stop-color:#F6940A"/>
		<stop  offset="1" style="stop-color:#F75C2E"/>
	</linearGradient>
	<path style="fill:url(#SVGID_2_);" d="M53.184,50.365l-0.248,1.984c3.986,0.499,14.049,2.681,21.373,12.162l1.583-1.223
		C68.108,53.213,57.419,50.894,53.184,50.365z"/>
	
		<linearGradient id="SVGID_3_" gradientUnits="userSpaceOnUse" x1="53.045" y1="-47.298" x2="82.36" y2="-47.298" gradientTransform="matrix(1 0 0 1 0 102)">
		<stop  offset="0" style="stop-color:#F6940A"/>
		<stop  offset="1" style="stop-color:#F75C2E"/>
	</linearGradient>
	<path style="fill:url(#SVGID_3_);" d="M53.178,45.095l-0.133,1.995c3.016,0.201,18.521,1.977,27.596,17.219l1.719-1.023
		C72.774,47.185,56.37,45.307,53.178,45.095z"/>
	
		<linearGradient id="SVGID_4_" gradientUnits="userSpaceOnUse" x1="62.38" y1="-75.377" x2="72.026" y2="-75.377" gradientTransform="matrix(1 0 0 1 0 102)">
		<stop  offset="0" style="stop-color:#F6940A"/>
		<stop  offset="1" style="stop-color:#F75C2E"/>
	</linearGradient>
	<polygon style="fill:url(#SVGID_4_);" points="67.203,26.53 70.845,29.195 72.026,27.581 67.203,24.051 62.38,27.581 
		63.561,29.195 	"/>
	
		<linearGradient id="SVGID_5_" gradientUnits="userSpaceOnUse" x1="52.879" y1="-61.2755" x2="103.709" y2="-61.2755" gradientTransform="matrix(1 0 0 1 0 102)">
		<stop  offset="0" style="stop-color:#F6940A"/>
		<stop  offset="1" style="stop-color:#F75C2E"/>
	</linearGradient>
	<path style="fill:url(#SVGID_5_);" d="M82.347,54.678c-0.709-0.827-1.433-1.607-2.169-2.342c0.463-0.605,4.482-5.556,13.056-7.966
		c1.515-0.433,2.532-1.752,2.532-3.284v-4.613h-4.432l3.923-6.813h-2.528l3.069-5.323l3.07,5.323h-2.515l3.923,6.807h-4.445v4.311
		c0,0.758,0.343,1.505,0.917,1.998c0.575,0.492,1.321,0.728,2.04,0.648c1.679-0.168,3.278-0.253,4.753-0.253v-2
		c-1.541,0-3.207,0.088-4.963,0.264c-0.185,0.019-0.374-0.046-0.528-0.178c-0.135-0.116-0.219-0.3-0.219-0.48v-2.311h5.878
		l-3.923-6.807h2.543l-3.303-5.729h1.807l-5.034-8.731l-5.035,8.731h1.807l-3.304,5.729h2.531l-3.923,6.813h5.891v2.613
		c0,0.639-0.424,1.174-1.077,1.36c-7.141,2.007-11.743,5.9-13.543,8.038v-18.73l1.347,0.999l1.191-1.606L67.307,20.485
		l-14.428,10.66l1.188,1.608l1.399-1.034v8.746c-1.417-0.164-2.26-0.173-2.304-0.173l-0.004,2
		c0.221,0.001,22.208,0.416,33.18,21.958l1.782-0.907c-0.597-1.173-1.232-2.272-1.886-3.328l0.216,0.356l0.178-0.27
		c0.452-0.66,4.769-6.454,16.912-6.454v-2c-11.787,0-16.824,5.087-18.25,6.906c-0.614-0.91-1.243-1.786-1.892-2.608l0.279,0.359
		c-0.154,0.07,4.975-8.025,19.914-8.025v-2C89.525,46.279,83.732,52.784,82.347,54.678z M95.799,21.202l1.572,2.728h-1.807h-1.338
		L95.799,21.202z M57.467,30.242l9.838-7.269l9.84,7.297V49.6c-1.626-1.323-3.277-2.465-4.917-3.438V38.04
		c0-2.743-2.231-4.975-4.975-4.975c-2.743,0-4.974,2.231-4.974,4.975v3.821c-1.812-0.527-3.443-0.875-4.813-1.108L57.467,30.242
		L57.467,30.242z M70.229,45.05c-2.191-1.143-4.325-2.015-6.301-2.674l0.352,0.13V38.04c0-1.612,1.362-2.975,2.974-2.975
		s2.975,1.362,2.975,2.975V45.05z"/>
</g>
<g style="enable-background:new    ;">
	<path style="fill:#192F34;" d="M35.191,78.125h1.785c0.306,0,0.592-0.022,0.858-0.067c0.266-0.045,0.499-0.125,0.697-0.238
		s0.354-0.261,0.468-0.442c0.113-0.181,0.17-0.407,0.17-0.68c0-0.385-0.153-0.674-0.459-0.867c-0.306-0.192-0.737-0.289-1.292-0.289
		c-0.624,0-1.167,0.071-1.632,0.213s-0.907,0.331-1.326,0.569l-0.85-2.091c0.453-0.283,1-0.513,1.641-0.688
		c0.64-0.176,1.368-0.264,2.185-0.264c0.634,0,1.224,0.071,1.768,0.213c0.544,0.142,1.014,0.352,1.411,0.629
		c0.396,0.277,0.706,0.629,0.927,1.054c0.221,0.425,0.332,0.921,0.332,1.487c0,0.432-0.117,0.858-0.349,1.284
		c-0.232,0.425-0.586,0.784-1.063,1.079c0.26,0.136,0.507,0.295,0.739,0.476c0.232,0.182,0.437,0.392,0.612,0.63
		c0.175,0.237,0.314,0.507,0.417,0.807c0.102,0.301,0.153,0.638,0.153,1.012c0,1.258-0.445,2.174-1.334,2.746
		s-2.128,0.858-3.714,0.858c-0.397,0-0.791-0.028-1.182-0.085c-0.391-0.058-0.765-0.128-1.122-0.213s-0.691-0.184-1.003-0.298
		c-0.312-0.112-0.586-0.231-0.825-0.356l0.782-2.074c0.159,0.068,0.354,0.145,0.586,0.229s0.49,0.167,0.773,0.247
		c0.283,0.079,0.578,0.146,0.884,0.203c0.306,0.058,0.612,0.085,0.918,0.085c0.748,0,1.352-0.107,1.811-0.322
		c0.459-0.216,0.688-0.59,0.688-1.122c0-0.329-0.074-0.596-0.221-0.799c-0.147-0.204-0.349-0.36-0.604-0.468
		s-0.555-0.182-0.901-0.221c-0.346-0.04-0.723-0.06-1.13-0.06h-1.598C35.191,80.302,35.191,78.125,35.191,78.125z"/>
	<path style="fill:#192F34;" d="M43.912,80.913c0-0.793,0.122-1.487,0.365-2.082s0.564-1.091,0.96-1.487
		c0.397-0.396,0.853-0.697,1.369-0.901s1.046-0.306,1.589-0.306c1.27,0,2.273,0.388,3.01,1.164s1.105,1.919,1.105,3.426
		c0,0.147-0.006,0.309-0.018,0.484s-0.023,0.331-0.033,0.468h-5.747c0.056,0.521,0.299,0.935,0.731,1.24
		c0.43,0.307,1.008,0.459,1.734,0.459c0.465,0,0.92-0.042,1.367-0.127c0.449-0.085,0.814-0.189,1.098-0.314l0.34,2.057
		c-0.137,0.068-0.318,0.137-0.545,0.204c-0.227,0.068-0.479,0.128-0.756,0.179s-0.576,0.094-0.893,0.127
		c-0.316,0.034-0.635,0.052-0.951,0.052c-0.805,0-1.506-0.119-2.1-0.357c-0.595-0.238-1.088-0.563-1.479-0.978
		c-0.391-0.413-0.68-0.903-0.867-1.471C44.005,82.183,43.912,81.571,43.912,80.913z M49.861,79.944
		c-0.012-0.215-0.047-0.425-0.109-0.629s-0.16-0.385-0.289-0.544c-0.131-0.158-0.295-0.289-0.494-0.391
		c-0.197-0.103-0.443-0.153-0.738-0.153c-0.283,0-0.527,0.048-0.732,0.145c-0.203,0.097-0.373,0.224-0.51,0.383
		c-0.135,0.158-0.24,0.343-0.314,0.552c-0.074,0.21-0.127,0.423-0.161,0.638h3.347V79.944z"/>
	<path style="fill:#192F34;" d="M56.781,80.157c-0.022,0.397-0.045,0.828-0.067,1.294c-0.023,0.465-0.043,0.934-0.06,1.404
		c-0.018,0.472-0.034,0.92-0.052,1.346c-0.017,0.426-0.031,0.798-0.042,1.115h-2.466c0.023-0.623,0.06-1.326,0.111-2.108
		c0.051-0.781,0.107-1.578,0.17-2.388c0.062-0.811,0.13-1.601,0.204-2.372c0.073-0.771,0.145-1.462,0.212-2.074H56.9
		c0.488,0.792,0.938,1.613,1.347,2.461c0.41,0.85,0.842,1.782,1.297,2.801c0.478-1.086,0.943-2.09,1.398-3.013
		c0.454-0.922,0.864-1.672,1.228-2.249h2.143c0.079,0.612,0.155,1.304,0.229,2.074c0.073,0.771,0.142,1.562,0.204,2.372
		c0.062,0.81,0.115,1.606,0.161,2.388c0.045,0.782,0.079,1.485,0.102,2.108h-2.516c-0.022-0.886-0.054-1.765-0.094-2.64
		c-0.04-0.873-0.077-1.72-0.11-2.537l-1.876,4.123h-1.756L56.781,80.157z"/>
	<path style="fill:#192F34;" d="M71.214,78.448c-0.012,0.329-0.025,0.678-0.043,1.046c-0.017,0.368-0.048,0.736-0.093,1.104
		c-0.046,0.369-0.105,0.729-0.179,1.08c-0.074,0.352-0.168,0.68-0.28,0.985c-0.137,0.363-0.31,0.7-0.519,1.012
		c-0.21,0.312-0.477,0.593-0.8,0.842c-0.322,0.249-0.714,0.456-1.173,0.62c-0.459,0.165-0.994,0.274-1.606,0.332l-0.34-2.108
		c0.578-0.113,1.025-0.274,1.343-0.484s0.556-0.479,0.714-0.808c0.125-0.283,0.224-0.612,0.298-0.986
		c0.073-0.374,0.128-0.768,0.161-1.181c0.034-0.414,0.054-0.836,0.06-1.267s0.009-0.845,0.009-1.241v-1.021h6.715v8.942h-2.533
		v-6.868L71.214,78.448L71.214,78.448z"/>
	<path style="fill:#192F34;" d="M77.436,80.913c0-0.793,0.122-1.487,0.366-2.082c0.243-0.595,0.563-1.091,0.96-1.487
		s0.853-0.697,1.369-0.901c0.515-0.204,1.045-0.306,1.589-0.306c1.27,0,2.272,0.388,3.009,1.164s1.105,1.919,1.105,3.426
		c0,0.147-0.006,0.309-0.017,0.484c-0.012,0.176-0.023,0.331-0.034,0.468h-5.746c0.057,0.521,0.3,0.935,0.73,1.24
		c0.431,0.307,1.009,0.459,1.734,0.459c0.465,0,0.921-0.042,1.368-0.127c0.448-0.085,0.813-0.189,1.097-0.314l0.34,2.057
		c-0.136,0.068-0.317,0.137-0.544,0.204c-0.227,0.068-0.479,0.128-0.756,0.179c-0.278,0.051-0.576,0.094-0.893,0.127
		c-0.317,0.034-0.635,0.052-0.952,0.052c-0.805,0-1.505-0.119-2.1-0.357s-1.088-0.563-1.479-0.978
		c-0.391-0.413-0.68-0.903-0.866-1.471C77.529,82.183,77.436,81.571,77.436,80.913z M83.386,79.944
		c-0.012-0.215-0.048-0.425-0.11-0.629s-0.159-0.385-0.289-0.544c-0.13-0.158-0.295-0.289-0.493-0.391
		c-0.198-0.103-0.444-0.153-0.739-0.153c-0.283,0-0.527,0.048-0.731,0.145c-0.203,0.097-0.374,0.224-0.51,0.383
		c-0.136,0.158-0.24,0.343-0.314,0.552c-0.073,0.21-0.127,0.423-0.161,0.638h3.347V79.944z"/>
	<path style="fill:#192F34;" d="M87.244,79.095h4.931v2.295h-4.931V79.095z"/>
	<path style="fill:#192F34;" d="M96.492,75.779v1.938h0.867c0.873,0,1.652,0.067,2.338,0.204c0.686,0.136,1.264,0.356,1.733,0.662
		c0.471,0.307,0.83,0.703,1.08,1.19c0.249,0.487,0.374,1.082,0.374,1.785c0,1.304-0.474,2.275-1.42,2.915
		c-0.946,0.641-2.298,0.961-4.055,0.961c-0.476,0-1.017-0.028-1.623-0.085s-1.216-0.159-1.827-0.307V73.535h7.819v2.244
		C101.778,75.779,96.492,75.779,96.492,75.779z M97.547,83.175c0.351,0,0.686-0.023,1.003-0.068s0.598-0.128,0.841-0.246
		c0.244-0.119,0.439-0.281,0.587-0.485c0.147-0.203,0.221-0.47,0.221-0.799c0-0.34-0.067-0.617-0.204-0.833
		c-0.136-0.215-0.328-0.385-0.577-0.51c-0.25-0.125-0.556-0.21-0.918-0.255c-0.363-0.045-0.771-0.068-1.225-0.068h-0.782v3.23
		c0.125,0.011,0.275,0.02,0.451,0.025S97.319,83.175,97.547,83.175z"/>
	<path style="fill:#192F34;" d="M112.558,76.374c-0.512,1.724-1.046,3.338-1.603,4.846c-0.557,1.507-1.165,2.969-1.823,4.386
		c-0.239,0.51-0.478,0.943-0.716,1.301c-0.238,0.356-0.499,0.651-0.783,0.884c-0.283,0.232-0.604,0.402-0.962,0.51
		s-0.774,0.161-1.251,0.161c-0.397,0-0.764-0.036-1.099-0.11c-0.334-0.073-0.609-0.155-0.825-0.246l0.442-2.023
		c0.261,0.091,0.493,0.153,0.697,0.188s0.419,0.051,0.646,0.051c0.453,0,0.802-0.122,1.046-0.365c0.243-0.244,0.45-0.581,0.62-1.012
		c-0.578-1.133-1.156-2.405-1.734-3.816s-1.123-2.995-1.633-4.752h2.687c0.113,0.442,0.247,0.921,0.401,1.437
		c0.153,0.517,0.315,1.037,0.486,1.564c0.17,0.527,0.344,1.04,0.521,1.538c0.177,0.499,0.345,0.952,0.504,1.36
		c0.147-0.408,0.302-0.861,0.461-1.36c0.159-0.498,0.315-1.011,0.469-1.538s0.302-1.048,0.444-1.564
		c0.143-0.516,0.271-0.994,0.384-1.437h2.621V76.374z"/>
	<path style="fill:#192F34;" d="M112.625,83.242h1.105c0.316-0.385,0.563-0.864,0.739-1.437s0.3-1.179,0.374-1.818
		c0.073-0.641,0.116-1.278,0.127-1.913c0.012-0.635,0.018-1.201,0.018-1.7h6.97v6.868h1.513v4.624h-2.158v-2.55h-6.528v2.55h-2.159
		v-4.624H112.625z M119.425,83.242v-4.794h-2.073c-0.023,0.397-0.049,0.808-0.077,1.232s-0.079,0.845-0.152,1.258
		c-0.074,0.414-0.173,0.819-0.298,1.216s-0.289,0.76-0.493,1.088C116.332,83.242,119.425,83.242,119.425,83.242z"/>
</g>
</svg>
