<?xml version="1.0" encoding="utf-8"?>
<!-- Generator: Adobe Illustrator 22.0.1, SVG Export Plug-In . SVG Version: 6.00 Build 0)  -->
<svg version="1.1" id="Слой_1" xmlns="http://www.w3.org/2000/svg" xmlns:xlink="http://www.w3.org/1999/xlink" x="0px" y="0px"
	 viewBox="0 0 15.563 15.513" style="enable-background:new 0 0 15.563 15.513;" xml:space="preserve">
<title>icon</title>
<path style="fill:#9DACC4;" d="M13.269,8.545c-0.835-0.813-2.165-0.813-3,0l-1,0.94c-0.767-0.192-1.461-0.602-2-1.18
	c-0.59-0.558-1.001-1.278-1.18-2.07l0.94-1c0.828-0.82,0.836-2.156,0.016-2.984C7.04,2.245,7.034,2.24,7.029,2.235l-1.68-1.6
	C4.545-0.194,3.222-0.214,2.394,0.59c-0.015,0.015-0.03,0.03-0.045,0.045l-1.2,1.2c-1.015,1.267-1.385,2.933-1,4.51
	c0.422,2.246,1.534,4.305,3.18,5.89c1.845,1.987,4.401,3.162,7.11,3.27c1.199,0.069,2.378-0.329,3.29-1.11l1.2-1.2
	c0.828-0.804,0.848-2.127,0.045-2.955c-0.015-0.015-0.03-0.03-0.045-0.045L13.269,8.545z M13.879,12.135l-1.2,1.2
	c-1,1-4.91,1.22-8.28-2.16c-1.43-1.358-2.395-3.132-2.76-5.07c-0.288-1.106-0.068-2.283,0.6-3.21l1.2-1.2
	c0.226-0.235,0.6-0.242,0.834-0.016c0.005,0.005,0.011,0.01,0.016,0.016l1.68,1.68c0.235,0.226,0.242,0.6,0.016,0.834
	C5.98,4.214,5.974,4.219,5.969,4.225l-1.16,1.2c-0.141,0.141-0.22,0.331-0.22,0.53c0.096,1.299,0.673,2.515,1.62,3.41
	c0.888,0.961,2.105,1.554,3.41,1.66c0.199,0,0.389-0.079,0.53-0.22l1.2-1.2c0.237-0.23,0.613-0.23,0.85,0l1.68,1.68
	c0.117,0.108,0.182,0.261,0.18,0.42C14.063,11.867,13.998,12.024,13.879,12.135z"/>
</svg>
