<?xml version="1.0" encoding="utf-8"?>
<!-- Generator: Adobe Illustrator 22.0.1, SVG Export Plug-In . SVG Version: 6.00 Build 0)  -->
<svg version="1.1" id="Слой_1" xmlns="http://www.w3.org/2000/svg" xmlns:xlink="http://www.w3.org/1999/xlink" x="0px" y="0px"
	 viewBox="0 0 15.75 18" style="enable-background:new 0 0 15.75 18;" xml:space="preserve">
<g>
	<path style="fill:#9DACC4;" d="M11.039,10.688c1.289,0,2.396,0.463,3.322,1.389c0.926,0.926,1.389,2.034,1.389,3.322v0.914
		c0,0.469-0.164,0.867-0.492,1.195C14.93,17.836,14.531,18,14.063,18H1.688c-0.469,0-0.867-0.164-1.195-0.492
		C0.164,17.179,0,16.781,0,16.313v-0.914c0-1.289,0.463-2.396,1.389-3.322c0.926-0.926,2.033-1.389,3.322-1.389
		c0.305,0,0.756,0.094,1.354,0.281c0.598,0.188,1.201,0.281,1.811,0.281s1.219-0.093,1.828-0.281
		C10.313,10.781,10.758,10.688,11.039,10.688z M14.063,16.313v-0.914c0-0.82-0.299-1.529-0.896-2.127s-1.307-0.896-2.127-0.896
		c-0.07,0-0.439,0.094-1.107,0.281c-0.668,0.188-1.354,0.281-2.057,0.281s-1.389-0.093-2.057-0.281
		c-0.668-0.188-1.037-0.281-1.107-0.281c-0.82,0-1.529,0.299-2.127,0.896s-0.896,1.307-0.896,2.127v0.914H14.063z M11.461,8.648
		c-0.984,0.984-2.18,1.477-3.586,1.477S5.273,9.633,4.289,8.648s-1.477-2.18-1.477-3.586s0.492-2.602,1.477-3.586S6.469,0,7.875,0
		s2.602,0.492,3.586,1.477s1.477,2.18,1.477,3.586S12.445,7.664,11.461,8.648z M10.266,2.672C9.609,2.016,8.813,1.688,7.875,1.688
		S6.141,2.016,5.484,2.672C4.828,3.328,4.5,4.125,4.5,5.063C4.5,6,4.828,6.797,5.484,7.453c0.656,0.656,1.453,0.984,2.391,0.984
		s1.734-0.328,2.391-0.984C10.922,6.797,11.25,6,11.25,5.063C11.25,4.125,10.922,3.328,10.266,2.672z"/>
</g>
</svg>
