<?xml version="1.0" encoding="utf-8"?>
<!-- Generator: Adobe Illustrator 22.0.1, SVG Export Plug-In . SVG Version: 6.00 Build 0)  -->
<svg version="1.1" id="Слой_1" xmlns="http://www.w3.org/2000/svg" xmlns:xlink="http://www.w3.org/1999/xlink" x="0px" y="0px"
	 viewBox="0 0 96 96" style="enable-background:new 0 0 96 96;" xml:space="preserve">
<g>
	<linearGradient id="SVGID_1_" gradientUnits="userSpaceOnUse" x1="3.9998" y1="47.9998" x2="91.9998" y2="47.9998">
		<stop  offset="0" style="stop-color:#87B0F0"/>
		<stop  offset="1" style="stop-color:#6083D9"/>
	</linearGradient>
	<circle style="fill:url(#SVGID_1_);" cx="48" cy="48" r="44"/>
	<path style="fill:#FFFFFF;" d="M48,8c22.091,0,40,17.909,40,40S70.091,88,48,88S8,70.091,8,48S25.909,8,48,8 M48,0
		C21.533,0,0,21.533,0,48s21.533,48,48,48s48-21.533,48-48S74.467,0,48,0L48,0z"/>
</g>
<g>
	<path style="fill:#FFFFFF;" d="M41.003,54.95c-0.552-1.164-1.096-2.372-1.633-3.624c-0.536-1.252-1.046-2.491-1.529-3.717
		s-0.927-2.398-1.332-3.519c-0.404-1.121-0.755-2.121-1.049-3.001H38.9c0.26,0.803,0.548,1.667,0.865,2.592
		c0.318,0.926,0.642,1.848,0.971,2.767c0.33,0.919,0.646,1.799,0.947,2.641s0.591,1.569,0.867,2.182
		c0.261-0.608,0.545-1.333,0.854-2.176c0.309-0.841,0.628-1.722,0.958-2.641c0.329-0.919,0.652-1.841,0.97-2.766
		c0.317-0.926,0.606-1.791,0.867-2.599h3.321c-0.311,0.885-0.668,1.886-1.071,3.004c-0.404,1.118-0.847,2.291-1.326,3.518
		c-0.48,1.227-0.986,2.467-1.52,3.72c-0.533,1.254-1.074,2.46-1.624,3.619H41.003z"/>
	<path style="fill:#FFFFFF;" d="M55.08,52.57c0.44,0,0.804-0.037,1.09-0.11c0.287-0.073,0.517-0.173,0.69-0.3
		c0.173-0.127,0.293-0.276,0.359-0.45c0.067-0.173,0.101-0.366,0.101-0.58c0-0.453-0.214-0.83-0.64-1.13
		c-0.428-0.3-1.16-0.623-2.2-0.97c-0.454-0.16-0.907-0.343-1.36-0.55s-0.86-0.467-1.22-0.78c-0.36-0.313-0.653-0.693-0.88-1.14
		c-0.228-0.447-0.34-0.99-0.34-1.63c0-0.641,0.119-1.217,0.359-1.73c0.24-0.513,0.58-0.95,1.021-1.31
		c0.439-0.36,0.973-0.637,1.6-0.83s1.333-0.29,2.12-0.29c0.933,0,1.74,0.1,2.42,0.3s1.24,0.42,1.68,0.66l-0.899,2.46
		c-0.387-0.2-0.817-0.377-1.29-0.53c-0.474-0.153-1.044-0.229-1.71-0.229c-0.747,0-1.284,0.103-1.61,0.31
		c-0.327,0.207-0.49,0.523-0.49,0.95c0,0.253,0.061,0.467,0.181,0.64c0.12,0.174,0.29,0.33,0.51,0.47
		c0.22,0.141,0.473,0.268,0.76,0.381s0.604,0.229,0.95,0.35c0.72,0.267,1.347,0.53,1.88,0.79s0.977,0.563,1.33,0.91
		s0.616,0.753,0.79,1.22c0.173,0.467,0.26,1.033,0.26,1.7c0,1.293-0.453,2.297-1.359,3.01c-0.907,0.714-2.273,1.07-4.101,1.07
		c-0.613,0-1.167-0.037-1.66-0.11s-0.93-0.163-1.31-0.27c-0.38-0.107-0.707-0.221-0.98-0.341c-0.273-0.119-0.503-0.232-0.689-0.34
		l0.88-2.479c0.413,0.227,0.923,0.43,1.53,0.609C53.457,52.48,54.2,52.57,55.08,52.57z"/>
</g>
</svg>
